<svg width="15" height="28" viewBox="0 0 15 28" fill="none" xmlns="http://www.w3.org/2000/svg">
<path d="M4.44855 27.9987C4.44594 27.9033 4.44072 27.8067 4.44072 27.7113C4.44072 23.651 4.44072 19.5908 4.44072 15.5305V15.2329H4.17697C2.87256 15.2329 1.56816 15.2291 0.262448 15.2367C0.058757 15.238 0 15.1807 0 14.9823C0.00783426 13.4775 0.00652855 11.9727 0 10.4679C0 10.2822 0.0522284 10.2186 0.249391 10.2199C1.5538 10.2275 2.8582 10.2237 4.16391 10.2237C4.24617 10.2237 4.32974 10.2237 4.43942 10.2237C4.43942 10.1181 4.43942 10.038 4.43942 9.95786C4.43942 8.73546 4.42636 7.51179 4.44464 6.28939C4.46292 5.07716 4.71884 3.91582 5.34688 2.8537C6.22171 1.37563 7.55745 0.513205 9.24965 0.174851C9.81894 0.0603702 10.4091 -0.0070462 10.9889 0.000585837C12.2632 0.0196659 13.5376 0.102346 14.812 0.154499C14.9621 0.160859 15 0.221915 15 0.35802C14.9961 1.73179 14.9948 3.10683 15 4.48059C15 4.64341 14.9321 4.67521 14.7859 4.67394C13.9672 4.67012 13.1498 4.66376 12.3311 4.67648C11.9877 4.68157 11.6391 4.7032 11.3009 4.7668C10.4457 4.9258 9.95604 5.4435 9.83592 6.2843C9.80458 6.50181 9.78499 6.72187 9.78369 6.94065C9.77847 7.97098 9.77977 9.00131 9.77977 10.0329C9.77977 10.0863 9.7876 10.141 9.79544 10.2262H10.0683C11.5634 10.2262 13.0584 10.2262 14.5534 10.2262C14.8211 10.2262 14.8237 10.2275 14.7898 10.4908C14.59 12.0096 14.3863 13.5271 14.1918 15.0472C14.1696 15.2176 14.0821 15.2367 13.9372 15.2354C12.6471 15.2316 11.3558 15.2341 10.0657 15.2341C9.98216 15.2341 9.89859 15.2341 9.77847 15.2341V28H4.44855V27.9987Z" fill="white"/>
</svg>
